<?xml version="1.0" standalone="no"?>
<!DOCTYPE svg PUBLIC "-//W3C//DTD SVG 20010904//EN"
 "http://www.w3.org/TR/2001/REC-SVG-20010904/DTD/svg10.dtd">
<svg version="1.0" xmlns="http://www.w3.org/2000/svg"
 width="1000.000000pt" height="1000.000000pt" viewBox="0 0 1000.000000 1000.000000"
 preserveAspectRatio="xMidYMid meet">
<metadata>
Created by potrace 1.14, written by Peter Selinger 2001-2017
</metadata>
<g transform="translate(0.000000,1000.000000) scale(0.100000,-0.100000)"
fill="#000000" stroke="none">
<path d="M0 5000 l0 -5000 5000 0 5000 0 0 5000 0 5000 -5000 0 -5000 0 0
-5000z m4587 2688 c722 -722 1313 -1316 1313 -1320 0 -9 -3067 -3078 -3075
-3078 -3 0 -5 330 -5 732 l0 733 802 802 803 803 -1320 1320 -1320 1320 745 0
745 0 1312 -1312z m4410 620 c-4 -380 -7 -1331 -7 -2112 l0 -1421 -450 450
-450 450 -2 1205 -3 1205 -1205 3 -1205 2 -455 455 -455 455 2119 0 2119 0 -6
-692z m-7087 -4068 l0 -1435 453 -453 453 -452 1434 0 1435 0 450 -450 450
-450 -2180 0 -2180 0 -612 612 -613 613 0 2180 0 2180 455 -455 455 -455 0
-1435z m5778 347 l1312 -1312 0 -748 0 -748 -1316 1315 c-723 724 -1319 1316
-1325 1316 -5 0 -367 -358 -804 -795 l-795 -795 -736 2 -737 3 1534 1536 c844
845 1539 1537 1544 1538 6 1 601 -590 1323 -1312z"/>
</g>
</svg>
