<?xml version="1.0" standalone="no"?>
<!DOCTYPE svg PUBLIC "-//W3C//DTD SVG 20010904//EN"
 "http://www.w3.org/TR/2001/REC-SVG-20010904/DTD/svg10.dtd">
<svg version="1.0" xmlns="http://www.w3.org/2000/svg"
 width="800.000000pt" height="800.000000pt" viewBox="0 0 800.000000 800.000000"
 preserveAspectRatio="xMidYMid meet">
<metadata>
Created by potrace 1.14, written by Peter Selinger 2001-2017
</metadata>
<g transform="translate(0.000000,800.000000) scale(0.100000,-0.100000)"
fill="#000000" stroke="none">
<path d="M0 4000 l0 -4000 4000 0 4000 0 0 4000 0 4000 -4000 0 -4000 0 0
-4000z m7195 312 l0 -2887 -357 358 -358 357 0 1865 c0 1025 -4 1866 -8 1869
-5 3 -822 -809 -1818 -1805 l-1809 -1809 -292 0 -293 0 0 293 0 292 1809 1809
c996 996 1808 1813 1805 1818 -3 4 -844 8 -1869 8 l-1865 0 -360 360 -360 360
2887 0 2888 0 0 -2888z m-5665 -609 l0 -2183 2183 0 2182 0 360 -360 360 -360
-2908 0 -2907 0 0 2907 0 2908 365 -365 365 -365 0 -2182z"/>
</g>
</svg>
